<?xml version="1.0" standalone="no"?><!DOCTYPE svg PUBLIC "-//W3C//DTD SVG 1.1//EN" "http://www.w3.org/Graphics/SVG/1.1/DTD/svg11.dtd"><svg t="1559450675692" class="icon" style="" viewBox="0 0 1024 1024" version="1.1" xmlns="http://www.w3.org/2000/svg" p-id="34153" xmlns:xlink="http://www.w3.org/1999/xlink" width="200" height="200"><defs><style type="text/css"></style></defs><path d="M992.896 538.656c0-247.424-214.912-448-480-448s-480 200.576-480 448c0 11.264-0.864 0.192 0 11.264l6.432 26.72C36.864 577.152 132.8 525.44 182.752 525.44c28.64 0 56.512 14.784 82.816 43.968L289.6 595.84l23.744-26.752c0.416-0.448 40.96-45.44 91.168-45.44 0.032 0 0.064 0 0.096 0 28.704 0.032 80.736 32.576 107.392 62.688 26.656-30.112 80.512-62.656 109.216-62.688 0.032 0 0.064 0 0.096 0 50.176 0 90.752 44.992 91.168 45.44l23.744 26.752 24.032-26.432c26.304-29.184 54.176-43.968 82.816-43.968 49.952 0 142.528 50.624 142.944 51.072C986.016 576.512 992.896 544.096 992.896 538.656zM843.072 461.44c-38.368 0-74.304 14.272-107.264 42.464-24.384-19.424-64.928-44.096-114.048-44.256-0.128 0-0.32 0-0.448 0-38.752 0-75.072 15.04-108.416 44.32-33.344-29.28-69.664-44.32-108.416-44.32-0.128 0-0.288 0-0.448 0-49.12 0.128-89.696 24.8-114.048 44.256C257.056 475.712 221.12 461.44 182.752 461.44c-29.888 0-58.144 12.032-81.888 27.168C127.584 300.512 301.952 154.656 512.896 154.656c210.944 0 385.312 145.824 412.032 333.92C901.216 473.504 872.96 461.44 843.072 461.44z" p-id="34154"></path><path d="M597.504 831.488c0.48 7.968 0 31.744-27.328 31.616-25.152-0.128-26.624-21.312-26.112-31.616l0.384-222.176-63.712-0.064L480 842.016c-0.064 3.424 0.032 34.368 23.872 58.656 11.904 12.128 34.016 26.592 71.616 26.592 32.096 0 51.36-13.28 61.952-24.448 23.904-25.248 23.328-67.456 23.104-71.328L597.504 831.488z" p-id="34155"></path></svg>