<?xml version="1.0" standalone="no"?><!DOCTYPE svg PUBLIC "-//W3C//DTD SVG 1.1//EN" "http://www.w3.org/Graphics/SVG/1.1/DTD/svg11.dtd"><svg t="1559450461447" class="icon" style="" viewBox="0 0 1260 1024" version="1.1" xmlns="http://www.w3.org/2000/svg" p-id="29915" xmlns:xlink="http://www.w3.org/1999/xlink" width="246.09375" height="200"><defs><style type="text/css"></style></defs><path d="M588.217163 107.600701A242.998249 242.998249 0 0 1 807.005254 258.241681l26.900175 58.283713h64.56042a284.245184 284.245184 0 0 1 249.274957 300.385289 274.381786 274.381786 0 0 1-245.688267 295.901926H317.422067A230.444834 230.444834 0 0 1 107.600701 680.574431 233.134851 233.134851 0 0 1 269.001751 457.302977l70.837128-21.52014 4.483363-77.113835a260.035026 260.035026 0 0 1 243.894921-251.068301m0-107.600701a365.842382 365.842382 0 0 0-351.495622 358.669002 341.632224 341.632224 0 0 0 77.113836 665.330998h588.217162A381.085814 381.085814 0 0 0 1255.341506 616.910683a390.949212 390.949212 0 0 0-350.598949-402.605954A351.495622 351.495622 0 0 0 588.217163 0z" p-id="29916"></path><path d="M635.740806 787.278459a53.80035 53.80035 0 0 1-29.590193-8.966725l-110.290718-73.527146h-197.267951a53.80035 53.80035 0 1 1 0-107.6007h213.408056a53.80035 53.80035 0 0 1 29.590193 8.966725l69.043782 45.730298L698.507881 448.336252a53.80035 53.80035 0 0 1 45.730298-32.28021 52.903678 52.903678 0 0 1 50.21366 26.003503l89.66725 154.22767h69.940456a53.80035 53.80035 0 1 1 0 107.600701H854.528897A53.80035 53.80035 0 0 1 807.005254 678.781086l-52.007005-89.667251-69.940456 164.987741a53.80035 53.80035 0 0 1-34.073555 30.486865z" p-id="29917"></path></svg>