<?xml version="1.0" standalone="no"?><!DOCTYPE svg PUBLIC "-//W3C//DTD SVG 1.1//EN" "http://www.w3.org/Graphics/SVG/1.1/DTD/svg11.dtd"><svg t="1559450335373" class="icon" style="" viewBox="0 0 1024 1024" version="1.1" xmlns="http://www.w3.org/2000/svg" p-id="29069" xmlns:xlink="http://www.w3.org/1999/xlink" width="200" height="200"><defs><style type="text/css"></style></defs><path d="M1022.399361 476.288342c6.271996-197.439877-53.311967-401.471749-72.639955-429.631731l-6.527996-9.471994-3.775997 11.007993c-1.663999 4.863997-3.391998 10.559993-5.311997 16.767989-7.871995 25.471984-19.263988 62.335961-44.799972 101.375937A510.271681 510.271681 0 0 0 511.99968 0.00064a511.99968 511.99968 0 0 0-359.807775 876.159452 46.527971 46.527971 0 1 1 45.567971 37.247977c-1.343999 0-2.559998-0.256-3.903997-0.384A511.99968 511.99968 0 0 0 1023.99936 512.00032c0-12.031992-0.768-23.871985-1.599999-35.711978zM945.279409 68.096597l0.832-2.815998c29.503982 70.591956 107.007933 383.42376 34.687978 591.231631-84.095947 185.087884-297.855814 256.31984-631.423605 210.431868 120.255925-19.519988 460.991712-107.007933 539.135663-467.519708l6.399996-30.399981-16.83199 23.359986c-60.223962 89.215944-281.471824 377.087764-599.615625 377.087764H278.399826c-27.519983 0-55.487965 1.151999-82.815948-3.263998-39.167976-8.127995-66.495958-65.471959-62.335961-134.847916 7.039996-115.135928 99.711938-245.311847 339.007788-265.343834 391.359755-32.76798 448.57572-218.559863 473.023704-297.919814z" p-id="29070"></path></svg>